<?xml version="1.0" standalone="no"?>
<!DOCTYPE svg PUBLIC "-//W3C//DTD SVG 20010904//EN"
 "http://www.w3.org/TR/2001/REC-SVG-20010904/DTD/svg10.dtd">
<svg version="1.0" xmlns="http://www.w3.org/2000/svg"
 width="500.000000pt" height="207.000000pt" viewBox="0 0 500.000000 207.000000"
 preserveAspectRatio="xMidYMid meet">

<g transform="translate(0.000000,207.000000) scale(0.100000,-0.100000)"
fill="#000000" stroke="none">
<path d="M670 1772 c-124 -33 -213 -100 -262 -200 -30 -60 -33 -75 -32 -152 0
-67 6 -101 28 -160 15 -41 30 -82 32 -90 4 -12 -10 -18 -66 -28 -244 -42 -363
-163 -362 -372 1 -185 118 -372 279 -448 50 -23 70 -27 153 -27 126 0 174 24
286 141 l80 84 71 -78 c48 -53 91 -89 134 -113 60 -32 70 -34 159 -34 82 0
103 4 153 27 216 101 337 399 244 601 -53 116 -149 182 -312 215 -49 11 -89
23 -88 28 1 5 16 47 33 94 56 159 36 288 -62 395 -106 116 -292 163 -468 117z
m222 -37 c76 -10 183 -69 228 -126 50 -64 65 -108 64 -199 0 -62 -6 -92 -38
-175 -46 -120 -193 -425 -205 -425 -5 0 -34 39 -64 87 l-55 87 48 95 c56 113
115 261 125 313 16 82 -54 146 -170 155 -123 10 -215 -45 -215 -128 0 -22 16
-83 36 -135 19 -53 34 -98 32 -100 -5 -4 -190 -26 -193 -22 -1 2 -17 39 -35
83 -29 69 -34 92 -34 165 -1 73 3 93 27 142 34 68 80 111 163 150 60 28 162
48 214 42 14 -2 46 -6 72 -9z m-27 -236 c95 -26 105 -72 46 -219 l-38 -95 -74
0 -73 0 -38 95 c-44 112 -48 158 -15 187 44 40 117 52 192 32z m-51 -439 c-56
-107 -67 -113 -230 -134 -173 -21 -270 -41 -301 -62 -36 -23 -56 -78 -47 -128
15 -93 93 -197 162 -215 60 -17 103 9 183 110 l71 89 59 -82 58 -81 -19 -26
c-37 -53 -150 -152 -197 -174 -67 -30 -179 -30 -247 1 -73 33 -133 87 -181
161 -154 239 -86 489 153 561 80 24 290 47 455 49 l118 1 -37 -70z m518 14
c134 -43 212 -135 224 -265 16 -167 -98 -370 -247 -443 -151 -73 -300 -29
-428 128 -109 133 -281 390 -269 401 2 2 32 8 67 14 35 6 74 17 87 26 13 8 25
15 27 15 3 0 43 -57 90 -127 161 -240 237 -313 307 -298 88 19 170 138 170
246 0 52 -3 59 -34 87 -41 36 -45 37 -165 56 -52 9 -95 17 -97 18 -1 2 16 43
39 91 l41 89 55 -7 c31 -4 90 -18 133 -31z m-734 -245 l33 -62 -57 -73 c-69
-91 -107 -124 -143 -124 -67 0 -150 106 -151 193 0 73 22 87 168 112 119 20
113 22 150 -46z m547 46 c155 -25 175 -38 175 -111 0 -51 -33 -115 -81 -158
-46 -42 -83 -46 -123 -15 -23 18 -120 133 -139 166 -8 13 53 133 68 133 6 0
51 -7 100 -15z"/>
<path d="M2243 1461 c-56 -26 -75 -66 -81 -168 l-5 -83 -43 0 c-44 0 -44 0
-44 -35 0 -35 0 -35 45 -35 l45 0 0 -275 0 -275 45 0 45 0 0 275 0 275 75 0
75 0 0 35 0 35 -75 0 -75 0 0 64 c0 82 11 110 49 126 24 10 41 10 77 1 41 -11
48 -10 60 6 19 25 18 27 -20 46 -58 27 -125 30 -173 8z"/>
<path d="M2712 1212 c-64 -23 -124 -78 -160 -147 -25 -45 -27 -60 -27 -160 0
-96 3 -116 24 -159 28 -56 84 -116 133 -143 48 -26 219 -26 267 0 56 31 118
103 141 165 18 48 21 73 18 152 -5 107 -29 170 -90 230 -71 72 -204 98 -306
62z m185 -72 c48 -21 96 -87 114 -155 15 -52 5 -174 -16 -216 -22 -43 -62 -87
-97 -105 -34 -18 -119 -18 -161 0 -123 51 -167 260 -83 398 54 90 150 121 243
78z"/>
<path d="M4080 1221 c-78 -25 -146 -89 -183 -170 -32 -69 -31 -226 1 -296 27
-60 82 -118 137 -148 34 -19 56 -22 150 -22 98 0 115 3 159 25 56 29 61 37 41
64 -14 18 -15 18 -64 -3 -67 -29 -168 -29 -228 0 -51 25 -96 76 -112 128 -22
76 -36 71 209 71 l220 0 0 58 c0 119 -54 224 -139 271 -46 25 -146 37 -191 22z
m171 -97 c40 -37 68 -98 69 -146 l0 -38 -175 0 -175 0 0 30 c0 62 42 132 105
172 47 30 135 21 176 -18z"/>
<path d="M4765 1206 c-27 -12 -56 -30 -64 -39 -20 -25 -31 -21 -31 13 0 28 -2
30 -40 30 l-40 0 0 -310 0 -310 45 0 45 0 0 238 c0 262 0 262 64 301 42 26
110 27 151 3 29 -18 31 -18 63 2 17 12 31 27 30 35 -5 23 -87 61 -132 61 -23
0 -63 -11 -91 -24z"/>
<path d="M3213 1198 c3 -7 55 -143 117 -303 61 -159 118 -295 126 -301 13 -10
11 -20 -11 -70 -48 -108 -111 -148 -177 -113 -18 9 -24 8 -35 -7 -20 -27 -17
-33 30 -54 85 -39 162 -18 211 57 14 21 86 198 160 393 74 195 139 367 145
383 l11 27 -48 0 -48 0 -94 -260 c-52 -143 -97 -260 -100 -260 -3 0 -48 116
-101 258 l-96 257 -48 3 c-36 2 -46 0 -42 -10z"/>
</g>
</svg>
