<?xml version="1.0" standalone="no"?>
<!DOCTYPE svg PUBLIC "-//W3C//DTD SVG 20010904//EN"
 "http://www.w3.org/TR/2001/REC-SVG-20010904/DTD/svg10.dtd">
<svg version="1.0" xmlns="http://www.w3.org/2000/svg"
 width="1500.000000pt" height="621.000000pt" viewBox="0 0 1500.000000 621.000000"
 preserveAspectRatio="xMidYMid meet">

<g transform="translate(0.000000,621.000000) scale(0.100000,-0.100000)"
fill="#000000" stroke="none">
<path d="M2275 5373 c-310 -36 -497 -101 -708 -246 -312 -213 -471 -531 -454
-912 8 -197 43 -331 162 -628 25 -61 44 -111 42 -112 -1 -1 -38 -8 -82 -14
-473 -73 -738 -182 -934 -384 -197 -202 -292 -452 -292 -762 1 -389 155 -759
444 -1061 184 -193 394 -318 631 -377 118 -29 332 -31 444 -4 290 69 507 224
776 555 59 72 111 132 116 132 4 0 15 -11 24 -25 38 -58 226 -276 295 -343
155 -148 341 -258 526 -308 89 -24 117 -27 250 -27 117 0 169 5 236 21 216 53
408 162 595 339 289 274 463 683 464 1089 0 243 -55 439 -175 619 -126 189
-328 340 -568 424 -105 37 -158 49 -387 91 -96 18 -176 34 -178 35 -1 1 18 56
44 121 148 380 185 582 150 820 -77 523 -496 883 -1111 954 -85 9 -244 11
-310 3z m266 -153 c298 -30 545 -134 730 -308 166 -157 249 -320 279 -553 30
-232 -22 -439 -242 -949 -166 -383 -468 -985 -491 -977 -10 3 -187 275 -283
433 l-56 92 134 268 c155 311 243 515 323 745 96 276 88 398 -34 520 -62 62
-162 115 -271 146 -50 13 -102 18 -225 18 -140 0 -169 -3 -235 -23 -116 -37
-203 -87 -264 -153 -68 -73 -90 -134 -89 -241 2 -90 44 -225 162 -514 38 -93
67 -172 65 -175 -2 -3 -56 -9 -121 -12 -105 -6 -305 -26 -420 -43 -40 -6 -42
-5 -51 27 -6 19 -29 77 -52 129 -101 229 -141 365 -155 532 -13 157 33 376
107 508 209 368 684 580 1189 530z m7 -716 c169 -34 283 -115 297 -209 4 -25
5 -65 2 -88 -11 -81 -155 -472 -224 -609 l-23 -48 -201 0 -200 0 -31 67 c-17
38 -59 138 -93 223 -139 343 -154 450 -77 541 93 111 340 166 550 123z m-24
-1136 c-14 -46 -135 -280 -179 -347 -57 -87 -117 -149 -161 -167 -19 -8 -144
-28 -277 -44 -528 -65 -863 -120 -968 -159 -112 -42 -180 -107 -221 -210 -28
-71 -30 -215 -5 -309 57 -215 195 -416 356 -521 191 -123 348 -97 522 87 46
49 146 168 223 265 76 97 141 177 145 177 3 0 17 -17 31 -37 14 -20 89 -127
167 -237 119 -167 140 -202 130 -215 -67 -85 -263 -304 -320 -357 -349 -323
-746 -378 -1146 -158 -286 157 -534 485 -636 839 -35 122 -48 218 -47 350 2
475 300 821 808 940 120 28 302 55 369 55 38 0 150 9 249 20 300 34 499 47
739 49 l228 1 -7 -22z m1116 -68 c392 -65 603 -153 780 -329 122 -122 194
-258 232 -441 25 -118 20 -326 -11 -460 -76 -334 -271 -648 -521 -839 -205
-157 -396 -225 -630 -224 -106 0 -139 4 -215 27 -159 47 -293 122 -429 240
-195 170 -746 923 -932 1275 -16 30 -39 73 -51 95 -28 52 -34 49 171 76 173
23 234 43 310 97 38 27 51 32 57 22 205 -359 623 -934 824 -1134 110 -110 171
-140 286 -140 80 0 90 2 170 42 166 82 316 273 391 498 19 59 23 90 23 205 0
131 -1 137 -29 188 -68 122 -188 186 -431 231 -88 16 -216 37 -285 46 -69 9
-132 19 -142 23 -14 6 3 47 112 270 l129 263 33 -5 c18 -3 89 -15 158 -26z
m-1907 -724 c26 -47 47 -87 47 -90 0 -3 23 -44 51 -92 l51 -86 -36 -51 c-61
-89 -295 -379 -354 -440 -76 -78 -146 -112 -213 -104 -176 21 -374 257 -424
506 -39 191 10 280 185 335 97 31 504 100 616 105 28 1 34 -5 77 -83z m1622
54 c377 -55 499 -90 558 -160 133 -157 -42 -587 -294 -725 -63 -35 -153 -41
-204 -13 -75 40 -194 171 -403 445 l-101 133 43 62 c23 35 67 108 96 163 59
112 68 125 84 125 6 0 106 -14 221 -30z"/>
<path d="M6840 4429 c-132 -23 -242 -105 -300 -223 -43 -88 -59 -191 -60 -388
l0 -168 -135 0 -135 0 0 -110 0 -110 135 0 135 0 0 -830 0 -830 135 0 135 0 0
830 0 830 235 0 235 0 0 110 0 110 -236 0 -236 0 4 193 c3 169 6 197 24 237
63 135 205 172 399 104 38 -14 75 -26 82 -27 18 -3 104 135 92 150 -17 20
-171 91 -234 107 -80 20 -207 27 -275 15z"/>
<path d="M8245 3675 c-333 -75 -570 -312 -662 -664 -38 -143 -44 -393 -13
-541 75 -364 316 -634 645 -721 115 -31 346 -31 460 -1 329 89 575 357 652
712 14 66 18 125 17 260 -1 154 -4 187 -27 273 -51 190 -118 315 -241 445
-119 125 -265 206 -433 238 -93 18 -317 17 -398 -1z m320 -210 c108 -23 189
-68 270 -150 154 -156 218 -334 218 -610 0 -279 -69 -465 -226 -612 -112 -104
-222 -146 -382 -146 -288 -1 -505 194 -582 521 -27 117 -25 376 5 495 92 369
372 570 697 502z"/>
<path d="M12242 3670 c-304 -80 -553 -375 -616 -734 -45 -249 -19 -503 70
-694 93 -202 274 -374 472 -451 258 -99 590 -90 846 24 61 27 196 110 196 121
0 5 -77 142 -86 153 -2 2 -45 -16 -96 -42 -118 -57 -200 -82 -320 -97 -241
-28 -482 55 -628 218 -89 98 -170 301 -170 422 l0 30 670 0 670 0 0 78 c-1
336 -98 611 -280 793 -60 61 -95 86 -170 123 -52 25 -126 53 -165 61 -102 21
-302 19 -393 -5z m319 -200 c159 -30 289 -153 355 -336 23 -63 54 -221 54
-277 l0 -27 -532 2 -533 3 3 45 c19 241 151 464 329 554 84 42 214 57 324 36z"/>
<path d="M14374 3665 c-91 -31 -171 -78 -261 -154 -40 -34 -75 -61 -77 -61 -2
0 -9 45 -16 100 l-12 100 -114 0 -114 0 0 -940 0 -940 135 0 135 0 0 725 0
725 78 78 c178 179 386 208 582 81 33 -21 63 -39 66 -39 12 0 214 144 214 153
0 18 -100 104 -157 134 -86 47 -161 63 -283 63 -84 0 -119 -5 -176 -25z"/>
<path d="M9626 3628 c4 -13 166 -435 359 -938 l353 -915 37 -3 c23 -2 35 -8
32 -15 -134 -321 -167 -385 -245 -465 -27 -27 -63 -57 -81 -67 -73 -37 -184
-29 -300 22 -43 18 -56 21 -63 11 -5 -7 -25 -39 -44 -71 -35 -56 -35 -59 -18
-72 40 -30 172 -94 229 -111 83 -24 224 -25 293 -1 115 40 228 159 311 325 33
65 401 1024 867 2260 l23 62 -147 0 -147 0 -278 -768 c-153 -422 -285 -780
-292 -797 l-13 -30 -11 30 c-7 17 -141 374 -299 795 l-287 765 -143 3 -144 3
8 -23z"/>
</g>
</svg>
